# xmcd CD database file
#
# Track frame offsets:
#	150
#	24067
#	37592
#	63152
#	78330
#	96127
#	115922
#	132055
#	156677
#	173222
#	194875
#	209480
#	225557
#	250462
#	268087
#	278625
#	293957
#	309410
#	327747
#
# Disc length: 4539 seconds
#
# Revision: 0
# Processed by: cddbd v1.5.2PL0 Copyright (c) Steve Scherf et al.
# Submitted via: CDex 1.51
#
DISCID=1311b913
DTITLE=Otto's BigBand - Now Go
DYEAR=2001
DGENRE=Jazz
TTITLE0=Minor Groove
TTITLE1=Now Go
TTITLE2=Homecoming Soon
TTITLE3=The Wedding
TTITLE4=Spirit
TTITLE5=Garden Party
TTITLE6=Birdland
TTITLE7=Things ain't what they used to be
TTITLE8=One o'clock Jump
TTITLE9=Moten Swing
TTITLE10=Walking Up and Down
TTITLE11=Ja so ist (auch) das Leben
TTITLE12=Satin Doll
TTITLE13=Four Brothers
TTITLE14=Mr. Anthony's Boogie
TTITLE15=Roll'em
TTITLE16=Blue Flame
TTITLE17=Honky Tonk Train
TTITLE18=Bugle Call Rag
EXTD=YEAR: 2001
EXTT0=
EXTT1=
EXTT2=
EXTT3=
EXTT4=
EXTT5=
EXTT6=
EXTT7=
EXTT8=
EXTT9=
EXTT10=
EXTT11=
EXTT12=
EXTT13=
EXTT14=
EXTT15=
EXTT16=
EXTT17=
EXTT18=
PLAYORDER=
